# Blender 4.5.3 LTS
# www.blender.org
mtllib big_banc.mtl
o Cube
v 6.325059 0.391441 -3.256320
v 6.325059 -0.391441 -3.256320
v 6.325059 0.391441 3.256320
v 6.325059 -0.391441 3.256320
v -6.325059 0.391441 -3.256320
v -6.325059 -0.391441 -3.256320
v -6.325059 0.391441 3.256320
v -6.325059 -0.391441 3.256320
v -6.325059 -1.476372 5.014565
v -6.325059 -0.693489 5.014565
v 6.325059 -0.693489 5.014565
v 6.325059 -1.476372 5.014565
v -6.325059 -1.476372 6.557086
v -6.325059 -0.693489 6.557086
v 6.325059 -0.693489 6.557086
v 6.325059 -1.476372 6.557086
v -6.325059 0.692039 8.272471
v -6.325059 1.474922 8.272471
v 6.325059 1.474922 8.272471
v 6.325059 0.692039 8.272471
v -5.495635 0.691831 8.272307
v -5.495635 0.683507 9.000504
v -6.300276 0.691831 8.272307
v -6.300276 0.683507 9.000504
v -5.495635 1.465539 8.281152
v -5.495635 1.457214 9.009349
v -6.300276 1.465539 8.281152
v -6.300276 1.457214 9.009349
v 6.319274 0.694776 8.272473
v 6.319274 0.694776 9.159136
v 5.292265 0.694776 8.272473
v 5.292265 0.694776 9.159136
v 6.319274 1.467660 8.272473
v 6.319274 1.467660 9.159136
v 5.292265 1.467660 8.272473
v 5.292265 1.467660 9.159136
v 5.292265 -1.500374 8.272473
v 6.319275 -1.500374 8.272473
v 6.319275 -1.500374 9.159136
v 5.292265 -1.500374 9.159136
v -6.300276 -1.522815 8.246991
v -5.495635 -1.522815 8.246991
v -5.495635 -1.531139 8.975187
v -6.300276 -1.531139 8.975187
v 6.325059 -1.391441 -5.256320
v -6.325059 -1.391441 -5.256320
v 6.325059 -0.608559 -5.256320
v -6.325059 -0.608559 -5.256320
v 6.325059 -1.391441 -6.256320
v -6.325059 -1.391441 -6.256320
v 6.325059 -0.608559 -6.256320
v -6.325059 -0.608559 -6.256320
v 6.325059 0.608559 -8.256320
v -6.325059 0.608559 -8.256320
v 6.325059 1.391441 -8.256320
v -6.325059 1.391441 -8.256320
v -6.241698 0.622971 -8.256321
v -6.241698 0.622971 -9.078522
v -5.363898 0.622971 -8.256321
v -5.363898 0.622971 -9.078522
v -6.241698 1.370777 -8.256321
v -6.241698 1.370777 -9.078522
v -5.363898 1.370777 -8.256321
v -5.363898 1.370777 -9.078522
v -5.363897 -1.377029 -8.256321
v -6.241697 -1.377029 -8.256321
v -6.241697 -1.377029 -9.078522
v -5.363897 -1.377029 -9.078522
v 5.499139 0.628182 -8.256320
v 5.499139 0.628182 -8.927261
v 6.295058 0.628182 -8.256320
v 6.295058 0.628182 -8.927261
v 5.499139 1.332090 -8.256320
v 5.499139 1.332090 -8.927261
v 6.295058 1.332090 -8.256320
v 6.295058 1.332090 -8.927261
v 6.295058 -1.371818 -8.256320
v 5.499139 -1.371818 -8.256320
v 5.499139 -1.371818 -8.927261
v 6.295058 -1.371818 -8.927261
vn -0.0000 1.0000 -0.0000
vn -1.0000 -0.0000 -0.0000
vn -0.0000 -1.0000 -0.0000
vn 1.0000 -0.0000 -0.0000
vn -0.0000 0.8944 -0.4472
vn -0.0000 -0.8510 -0.5251
vn -0.0000 0.8510 0.5251
vn -0.0000 -0.0000 1.0000
vn -0.0000 -0.6204 0.7843
vn -0.0000 0.6204 -0.7843
vn -0.0000 -0.0114 0.9999
vn -0.0000 0.9999 0.0114
vn -0.0000 0.0114 -0.9999
vn -0.0000 -0.0000 -1.0000
vn -0.0000 -0.9999 -0.0114
vn -0.0000 -0.8944 0.4472
vn -0.0000 -0.7071 -0.7071
vn -0.0000 0.7071 0.7071
vt 0.883418 0.045837
vt 0.883595 0.993424
vt 0.152487 0.993485
vt 0.152310 0.045898
vt 0.845551 0.497963
vt 0.845551 0.435292
vt 1.056489 0.348440
vt 1.056489 0.411112
vt 0.064225 0.497963
vt 0.064225 0.435292
vt 0.195827 0.943966
vt 0.195827 0.013104
vt 0.914030 0.013104
vt 0.914030 0.943966
vt 0.922247 0.429901
vt 0.922247 0.494284
vt 0.119592 0.494284
vt 0.119592 0.429901
vt 1.107938 0.045818
vt 1.108115 0.993406
vt -0.045070 0.045914
vt -0.044893 0.993501
vt -0.218056 0.993516
vt -0.218234 0.045928
vt 1.107927 0.013104
vt 1.107927 0.943966
vt -0.097104 0.405061
vt -0.097104 0.340679
vt 1.241547 0.411112
vt 1.241547 0.348440
vt 1.447343 0.522027
vt 1.447343 0.584699
vt 1.278034 0.013104
vt 1.278034 0.943966
vt -0.287213 0.405061
vt -0.287213 0.340679
vt 0.642744 0.105414
vt 0.704978 0.105414
vt 0.704978 0.776412
vt 0.642744 0.776412
vt 1.467204 0.013104
vt 1.467204 0.943966
vt -0.498627 0.583387
vt -0.498627 0.519004
vt -0.410625 0.993532
vt -0.410802 0.045944
vt 0.642066 0.732417
vt 0.642066 0.775097
vt 0.466018 0.775097
vt 0.466018 0.732417
vt 1.447323 0.522011
vt 1.534685 0.521344
vt 1.535746 0.583281
vt 1.448384 0.583948
vt -0.411600 0.991676
vt -0.493348 0.991683
vt -0.493359 0.931409
vt -0.411611 0.931402
vt 0.527904 1.570919
vt 0.432962 1.564895
vt 0.434115 1.004949
vt 0.529057 1.010973
vt 0.370287 0.654607
vt 0.370287 0.826350
vt 0.386852 0.826350
vt 0.386852 0.654607
vt 0.703570 0.775097
vt 0.703570 0.732417
vt 1.553716 0.522246
vt 1.447343 0.522246
vt 1.447343 0.346519
vt 1.553716 0.346519
vt 1.553716 0.584118
vt 1.447343 0.584118
vt -0.410788 0.123309
vt -0.510325 0.123317
vt -0.510339 0.046386
vt -0.410803 0.046378
vt -0.498627 0.582789
vt -0.607904 0.582789
vt -0.607904 0.519229
vt -0.498627 0.519229
vt 0.608948 0.655261
vt 0.608948 0.826821
vt 0.630092 0.826821
vt 0.630092 0.655261
vt 0.704400 0.160196
vt 0.642962 0.160196
vt 0.642962 0.105721
vt 0.704400 0.105721
vt 1.467204 0.013530
vt 1.564984 0.013530
vt 1.564984 0.089103
vt 1.467204 0.089103
vt -0.607904 0.338705
vt -0.498627 0.338705
vt 0.468464 0.160196
vt 0.468464 0.105721
vt 0.630092 0.167994
vt 0.608948 0.167994
vt 1.464394 0.882933
vt 1.544698 0.882933
vt 1.544698 0.942143
vt 1.464394 0.942143
vt 0.386852 0.163013
vt 0.370287 0.163013
vt 1.444286 0.344722
vt 1.531648 0.344056
vt 0.437416 -0.597831
vt 0.532358 -0.591807
vt -0.175716 0.355239
vt -0.175716 0.417911
vt -0.295687 0.417911
vt -0.295687 0.355239
vt 1.168738 0.347663
vt 1.168738 0.412046
vt -0.024730 0.943966
vt -0.024730 0.013104
vt -0.135008 0.013104
vt -0.135008 0.943966
vt -0.355565 0.943966
vt -0.355565 0.013104
vt 1.220197 0.045809
vt 1.220374 0.993396
vt 1.291983 0.347663
vt 1.291983 0.412046
vt 0.507670 -0.119891
vt 0.607850 -0.119891
vt 0.607850 0.960253
vt 0.507669 0.960253
vt 1.444718 0.045790
vt 1.444895 0.993378
vt 1.538475 0.512139
vt 1.538475 0.576522
vt -0.535628 0.578016
vt -0.535628 0.515344
vt 0.509514 -0.112773
vt 0.509514 -0.037821
vt 0.253586 -0.037821
vt 0.253586 -0.112773
vt 1.538475 0.513324
vt 1.639808 0.513324
vt 1.639808 0.574822
vt 1.538475 0.574822
vt 1.444881 0.921379
vt 1.537182 0.921372
vt 1.537194 0.987125
vt 1.444894 0.987133
vt -0.535628 0.576362
vt -0.634268 0.576362
vt -0.634268 0.516498
vt -0.535628 0.516498
vt 0.389564 0.639322
vt 0.389564 0.805316
vt 0.371493 0.805316
vt 0.371493 0.639322
vt 0.605206 -0.037821
vt 0.605206 -0.112773
vt -0.355565 0.937832
vt -0.446236 0.937832
vt -0.446236 0.873239
vt -0.355565 0.873239
vt 0.371493 0.195374
vt 0.389564 0.195374
vt 1.538475 0.348849
vt 1.639808 0.348849
vt -0.634268 0.356393
vt -0.535628 0.356393
vt 0.510180 0.889732
vt 0.510180 0.957692
vt 0.254253 0.957692
vt 0.254253 0.889732
vt 1.538475 0.513753
vt 1.621165 0.513753
vt 1.621165 0.571641
vt 1.538475 0.571641
vt 1.444718 0.048037
vt 1.520038 0.048031
vt 1.520049 0.107651
vt 1.444729 0.107657
vt 0.830829 0.796728
vt 0.857659 0.796728
vt 0.857659 0.640479
vt 0.830829 0.640479
vt 0.629593 0.640479
vt 0.629593 0.796728
vt 0.613207 0.796728
vt 0.613207 0.640479
vt 0.600255 0.957692
vt 0.600255 0.889732
vt -0.355565 0.073880
vt -0.429555 0.073880
vt -0.429555 0.015312
vt -0.355565 0.015312
vt 0.613207 0.196530
vt 0.629593 0.196530
vt 1.538475 0.349277
vt 1.621165 0.349277
vt 0.857659 0.196530
vt 0.830829 0.196530
s 0
usemtl Material
f 1/1/1 5/2/1 7/3/1 3/4/1
f 7/5/2 8/6/2 9/7/2 10/8/2
f 8/6/2 7/5/2 5/9/2 6/10/2
f 6/11/3 2/12/3 4/13/3 8/14/3
f 2/15/4 1/16/4 3/17/4 4/18/4
f 5/2/5 1/1/5 47/19/5 48/20/5
f 11/21/1 10/22/1 14/23/1 15/24/1
f 8/14/6 4/13/6 12/25/6 9/26/6
f 3/4/7 7/3/7 10/22/7 11/21/7
f 4/18/4 3/17/4 11/27/4 12/28/4
f 14/29/2 13/30/2 17/31/2 18/32/2
f 10/8/2 9/7/2 13/30/2 14/29/2
f 9/26/3 12/25/3 16/33/3 13/34/3
f 12/28/4 11/27/4 15/35/4 16/36/4
f 20/37/8 19/38/8 18/39/8 17/40/8
f 13/34/9 16/33/9 20/41/9 17/42/9
f 16/36/4 15/35/4 19/43/4 20/44/4
f 15/24/10 14/23/10 18/45/10 19/46/10
f 22/47/11 24/48/11 44/49/11 43/50/11
f 23/51/2 24/52/2 28/53/2 27/54/2
f 27/55/12 28/56/12 26/57/12 25/58/12
f 25/59/4 26/60/4 22/61/4 21/62/4
f 23/63/13 27/64/13 25/65/13 21/66/13
f 28/67/11 24/48/11 22/47/11 26/68/11
f 32/69/2 31/70/2 37/71/2 40/72/2
f 31/70/2 32/69/2 36/73/2 35/74/2
f 35/75/1 36/76/1 34/77/1 33/78/1
f 33/79/4 34/80/4 30/81/4 29/82/4
f 31/83/14 35/84/14 33/85/14 29/86/14
f 36/87/8 32/88/8 30/89/8 34/90/8
f 38/91/3 39/92/3 40/93/3 37/94/3
f 29/82/4 30/81/4 39/95/4 38/96/4
f 30/89/8 32/88/8 40/97/8 39/98/8
f 31/83/14 29/86/14 38/99/14 37/100/14
f 42/101/15 43/102/15 44/103/15 41/104/15
f 23/63/13 21/66/13 42/105/13 41/106/13
f 24/52/2 23/51/2 41/107/2 44/108/2
f 21/62/4 22/61/4 43/109/4 42/110/4
f 46/111/2 48/112/2 52/113/2 50/114/2
f 1/16/4 2/15/4 45/115/4 47/116/4
f 6/10/2 5/9/2 48/112/2 46/111/2
f 2/12/16 6/11/16 46/117/16 45/118/16
f 49/119/17 50/120/17 54/121/17 53/122/17
f 45/118/3 46/117/3 50/120/3 49/119/3
f 48/20/1 47/19/1 51/123/1 52/124/1
f 47/116/4 45/115/4 49/125/4 51/126/4
f 54/127/14 56/128/14 55/129/14 53/130/14
f 52/124/18 51/123/18 55/131/18 56/132/18
f 51/126/4 49/125/4 53/133/4 55/134/4
f 50/114/2 52/113/2 56/135/2 54/136/2
f 58/137/14 60/138/14 68/139/14 67/140/14
f 59/141/4 60/142/4 64/143/4 63/144/4
f 63/145/1 64/146/1 62/147/1 61/148/1
f 61/149/2 62/150/2 58/151/2 57/152/2
f 59/153/8 63/154/8 61/155/8 57/156/8
f 64/157/14 60/138/14 58/137/14 62/158/14
f 66/159/3 67/160/3 68/161/3 65/162/3
f 59/153/8 57/156/8 66/163/8 65/164/8
f 60/142/4 59/141/4 65/165/4 68/166/4
f 57/152/2 58/151/2 67/167/2 66/168/2
f 70/169/14 72/170/14 80/171/14 79/172/14
f 71/173/4 72/174/4 76/175/4 75/176/4
f 75/177/1 76/178/1 74/179/1 73/180/1
f 73/181/2 74/182/2 70/183/2 69/184/2
f 71/185/8 75/186/8 73/187/8 69/188/8
f 76/189/14 72/170/14 70/169/14 74/190/14
f 78/191/3 79/192/3 80/193/3 77/194/3
f 71/185/8 69/188/8 78/195/8 77/196/8
f 72/174/4 71/173/4 77/197/4 80/198/4
f 69/184/2 70/183/2 79/199/2 78/200/2
