# Blender 4.5.3 LTS
# www.blender.org
mtllib tree_bas.mtl
o Cube
v 0.509762 0.499439 -0.305687
v 1.000000 -1.000000 -0.521982
v 0.539731 0.431929 0.261710
v 1.000000 -1.000000 0.497576
v -0.534984 0.654647 -0.249635
v -1.000000 -1.000000 -0.598701
v -0.535426 0.625752 0.254463
v -1.000000 -1.000000 0.542221
v 0.000000 -1.000000 -1.381789
v -0.000657 0.405026 0.732419
v 0.000000 -1.000000 1.371602
v 0.027670 0.523272 -0.720244
v 0.051521 2.449040 0.920905
v -0.471871 2.378178 0.441616
v 0.476147 2.733080 -0.049733
v 0.511703 2.383761 0.534849
v -0.395595 2.612148 0.021836
v 0.023178 2.915185 -0.222312
v 0.106523 4.718349 1.462756
v -0.372199 4.803711 1.147274
v 0.555310 4.601154 0.609294
v 0.480911 4.847613 1.308979
v -0.398101 4.786545 0.604037
v 0.033538 4.392105 0.204059
v 0.116564 6.650157 1.185056
v -0.356170 6.602121 0.843377
v 0.585438 6.665555 0.292755
v 0.528131 6.505310 0.931150
v -0.388228 6.583717 0.317219
v 0.086826 6.801100 -0.125204
v 0.126124 8.681081 -0.411240
v 0.167982 11.189492 -0.470990
v 0.126124 8.681081 -0.411240
v 0.167982 11.189492 -0.470990
v -0.350506 9.712582 -0.076620
v -0.350506 9.712582 -0.076620
v -0.320563 5.693215 0.396237
v 0.034073 5.552019 0.145114
v 0.518821 5.606245 0.447797
v 0.568649 5.801132 1.039974
v 0.029430 5.712339 1.363279
v -0.342933 5.712247 1.023675
v 0.557653 3.701274 0.814059
v -0.044911 3.563062 1.181495
v -0.377136 3.590717 0.853173
v -0.409061 3.765055 0.339180
v 0.068822 3.761575 0.020161
v 0.500950 3.717112 0.358029
v -0.050353 1.517714 0.805975
v -0.446820 1.545025 0.397206
v -0.425965 1.588349 -0.153468
v -0.058236 1.692354 -0.466066
v 0.550292 1.483038 0.346385
v 0.531375 1.641765 -0.111469
v -0.346439 10.338055 -0.064681
v -0.346439 10.338055 -0.064681
v 0.215852 10.586373 -0.509691
v 0.215852 10.586373 -0.509691
v 0.027482 7.223978 1.108493
v 0.105061 7.203830 -0.179178
v 0.586674 7.179748 0.158567
v 0.604085 7.124767 0.809751
v -0.355672 6.114341 0.395198
v -0.383282 6.099062 0.881961
v 0.000853 6.119910 -0.014966
v 0.604400 6.146558 0.460630
v 0.529631 6.207213 0.944597
v 0.145381 6.192035 1.277542
v 0.077699 5.135938 0.182607
v 0.497288 5.178397 0.452206
v 0.565406 5.371192 1.195939
v 0.044394 5.326437 1.456818
v -0.362791 5.213648 0.515410
v -0.376155 5.270314 1.080932
v 0.490556 4.353841 1.103558
v -0.387374 4.230936 0.991928
v 0.093636 4.398603 1.378975
v -0.403830 4.192990 0.460113
v 0.073257 4.034314 0.114247
v 0.499937 4.081295 0.444242
v -0.060542 3.175221 1.079871
v -0.417968 3.225102 0.136632
v 0.017387 3.398967 -0.138539
v 0.534542 3.252973 0.189371
v 0.564110 3.115001 0.666002
v -0.381522 3.119106 0.778953
v -0.005212 1.974529 0.820338
v -0.413219 2.283968 -0.016815
v 0.507231 1.964669 0.443693
v 0.484188 2.210921 -0.069582
v -0.432666 1.986176 0.437864
v 0.021250 2.477578 -0.307050
v -0.513827 1.108112 0.285779
v -0.026824 1.169999 -0.547626
v -0.002236 0.931157 0.793382
v -0.443765 1.256881 -0.192507
v 0.547505 0.930843 0.319167
v 0.506725 1.013090 -0.245209
v -0.341013 6.995270 0.154403
v -0.382310 7.177240 0.239920
v -0.393825 7.271216 0.681836
v -0.280412 7.136181 0.885544
v -0.274090 11.612020 -2.188922
v -0.277297 11.605546 -2.172765
v -0.278470 11.609510 -2.187453
v -0.282097 11.602856 -2.170900
v 0.538353 12.052371 1.477797
v 0.527252 12.042063 1.452334
v 0.548799 12.050934 1.472120
v 0.539183 12.040443 1.445962
v 2.434445 11.897986 2.607683
v 2.427554 11.899796 2.609421
v 2.437027 11.877418 2.567159
v 2.428866 11.879766 2.569485
v -0.071675 14.651377 -2.566521
v -0.090802 14.643928 -2.576077
v -0.058627 14.631667 -2.595404
v -0.056351 14.641837 -2.581011
v -0.093350 14.632547 -2.592183
v -0.077823 14.623913 -2.605390
vn 0.8664 0.2247 -0.4459
vn 0.7910 -0.4929 -0.3625
vn 0.9101 0.1645 0.3805
vn 0.7921 -0.4905 0.3632
vn -0.8716 0.2389 -0.4281
vn -0.7758 -0.4914 -0.3958
vn -0.9091 0.1705 0.3800
vn -0.7773 -0.4968 0.3861
vn 0.0188 -0.4351 -0.9002
vn 0.0054 0.2041 0.9789
vn 0.0173 -0.4290 0.9032
vn 0.0304 0.3239 -0.9456
vn 0.0102 -0.2201 0.9754
vn -0.9488 -0.0661 0.3090
vn 0.8075 0.0844 -0.5838
vn 0.8997 -0.1126 0.4216
vn -0.8660 0.0939 -0.4911
vn -0.0511 0.1886 -0.9807
vn -0.0506 -0.1373 0.9892
vn -0.8629 -0.0402 0.5038
vn 0.9399 -0.0264 -0.3403
vn 0.7849 -0.0659 0.6161
vn -0.9310 0.0307 -0.3638
vn -0.0375 0.1328 -0.9904
vn -0.0120 0.1274 0.9918
vn -0.8948 0.0748 0.4402
vn 0.8984 -0.1286 -0.4200
vn 0.8499 0.0861 0.5199
vn -0.9343 -0.0109 -0.3562
vn -0.0084 -0.2074 -0.9782
vn -0.8845 -0.0989 -0.4560
vn -0.0626 -0.1460 -0.9873
vn 0.8694 -0.0742 -0.4885
vn 0.8887 0.0739 0.4525
vn -0.1474 0.2475 0.9576
vn -0.8991 0.1216 0.4204
vn 0.9100 -0.0903 0.4047
vn -0.1017 -0.2293 0.9680
vn -0.9039 -0.0709 0.4219
vn -0.8944 0.1614 -0.4171
vn 0.0525 0.3385 -0.9395
vn 0.8748 0.1754 -0.4517
vn -0.0993 -0.0569 0.9934
vn -0.9231 0.0158 0.3841
vn -0.8867 0.1189 -0.4469
vn -0.1037 0.1744 -0.9792
vn 0.9174 -0.0063 0.3978
vn 0.8745 0.0991 -0.4749
vn -0.0918 0.0932 0.9914
vn 0.1047 -0.2087 -0.9724
vn 0.8458 -0.1448 -0.5134
vn 0.8908 0.0362 0.4530
vn -0.9226 -0.0918 -0.3747
vn -0.9241 0.0545 0.3783
vn -0.1016 -0.1906 -0.9764
vn 0.9321 -0.0860 -0.3519
vn 0.8796 0.0688 0.4707
vn 0.0354 0.1839 0.9823
vn -0.0097 -0.0894 -0.9960
vn 0.8568 -0.0554 -0.5127
vn 0.8511 0.0990 0.5156
vn -0.1347 0.1508 0.9794
vn -0.9034 -0.0118 -0.4287
vn -0.9091 0.0750 0.4097
vn 0.8507 -0.1864 0.4915
vn -0.8943 -0.0795 0.4404
vn -0.0291 -0.2788 0.9599
vn -0.8910 0.1153 -0.4391
vn 0.0507 0.2698 -0.9616
vn 0.8724 0.1494 -0.4654
vn -0.1078 -0.2316 0.9668
vn -0.8776 0.1491 -0.4557
vn -0.0329 0.3102 -0.9501
vn 0.8710 0.1379 -0.4716
vn 0.9083 -0.0980 0.4066
vn -0.8901 -0.1109 0.4421
vn -0.0604 -0.1248 0.9903
vn -0.8835 0.0889 -0.4598
vn 0.8984 -0.0531 0.4360
vn 0.8531 0.0846 -0.5149
vn -0.9220 -0.0152 0.3869
vn -0.0623 0.1585 -0.9854
vn -0.9430 0.0345 0.3310
vn -0.0532 0.1901 -0.9803
vn -0.0247 -0.0703 0.9972
vn -0.8804 0.1315 -0.4556
vn 0.9158 -0.0303 0.4006
vn 0.8612 0.0972 -0.4988
vn -0.9069 -0.1428 -0.3963
vn -0.9090 -0.3996 0.1181
vn -0.8753 -0.0326 0.4824
vn -0.3990 0.8767 0.2685
vn -0.0618 0.9341 -0.3516
vn 0.1259 0.8881 -0.4420
vn 0.0324 -0.8187 0.5733
vt 0.791041 0.479692
vt 0.765218 0.492500
vt 0.764753 0.474568
vt 0.788920 0.455958
vt 0.693204 0.804558
vt 0.698146 0.723283
vt 0.728268 0.709650
vt 0.748068 0.802043
vt 0.352928 0.782613
vt 0.394529 0.701456
vt 0.421581 0.708017
vt 0.413104 0.800911
vt 0.352928 0.910139
vt 0.352928 0.837459
vt 0.395450 0.800911
vt 0.467762 0.811439
vt 0.298720 0.813732
vt 0.287641 0.730062
vt 0.318838 0.725454
vt 0.352928 0.798912
vt 0.251246 0.824554
vt 0.264406 0.734014
vt 0.749623 0.672233
vt 0.766084 0.581461
vt 0.801678 0.585515
vt 0.811615 0.666808
vt 0.421447 0.923926
vt 0.469031 0.883028
vt 0.638026 0.794679
vt 0.668425 0.716489
vt 0.727513 0.636429
vt 0.704025 0.638342
vt 0.702619 0.612996
vt 0.731072 0.615216
vt 0.440989 0.509987
vt 0.413560 0.499456
vt 0.414563 0.466751
vt 0.442921 0.476370
vt 0.707357 0.509856
vt 0.685309 0.508897
vt 0.687643 0.483496
vt 0.707807 0.492982
vt 0.675727 0.634336
vt 0.676996 0.612127
vt 0.435522 0.618335
vt 0.406750 0.626751
vt 0.412809 0.606015
vt 0.438760 0.600403
vt 0.306258 0.641280
vt 0.275361 0.635612
vt 0.268840 0.607554
vt 0.305043 0.617685
vt 0.814543 0.494081
vt 0.812269 0.465483
vt 0.803363 0.279508
vt 0.775567 0.280694
vt 0.779190 0.242636
vt 0.802396 0.250408
vt 0.752166 0.283424
vt 0.749715 0.257421
vt 0.733150 0.517878
vt 0.734391 0.487717
vt 0.784732 0.395599
vt 0.754937 0.389364
vt 0.751937 0.357274
vt 0.780556 0.376374
vt 0.804357 0.393191
vt 0.804062 0.365106
vt 0.306710 0.504662
vt 0.275619 0.528748
vt 0.276963 0.498808
vt 0.310463 0.475412
vt 0.271484 0.408520
vt 0.246763 0.418904
vt 0.230288 0.393724
vt 0.266449 0.392867
vt 0.710904 0.411127
vt 0.689757 0.406524
vt 0.690902 0.390175
vt 0.714110 0.385571
vt 0.475261 0.409678
vt 0.449321 0.402678
vt 0.459444 0.376761
vt 0.486876 0.386171
vt 0.739584 0.415180
vt 0.739884 0.387369
vt 0.736265 0.461801
vt 0.713398 0.459994
vt 0.715584 0.438320
vt 0.736007 0.437165
vt 0.454471 0.455261
vt 0.425542 0.443202
vt 0.435674 0.420808
vt 0.468479 0.431874
vt 0.684846 0.453822
vt 0.686176 0.429228
vt 0.297019 0.449366
vt 0.260149 0.470310
vt 0.253756 0.447668
vt 0.282505 0.428784
vt 0.780827 0.335311
vt 0.753398 0.333385
vt 0.755377 0.306481
vt 0.777538 0.312416
vt 0.800690 0.332943
vt 0.800556 0.309363
vt 0.301517 0.576997
vt 0.274126 0.576541
vt 0.276312 0.549361
vt 0.300887 0.543670
vt 0.811392 0.437666
vt 0.786245 0.429703
vt 0.786295 0.410244
vt 0.806422 0.412877
vt 0.760463 0.441372
vt 0.757214 0.412439
vt 0.728813 0.576944
vt 0.711410 0.574943
vt 0.711955 0.554475
vt 0.730272 0.551748
vt 0.676752 0.573017
vt 0.679231 0.542143
vt 0.442518 0.566231
vt 0.406967 0.561519
vt 0.410619 0.535451
vt 0.440500 0.534500
vt 0.821288 0.559187
vt 0.794963 0.550761
vt 0.790803 0.522441
vt 0.819304 0.525081
vt 0.314681 0.698111
vt 0.283412 0.701874
vt 0.281460 0.666554
vt 0.308136 0.668368
vt 0.428295 0.675331
vt 0.400629 0.675510
vt 0.401809 0.650674
vt 0.431565 0.657220
vt 0.700125 0.695039
vt 0.669792 0.689670
vt 0.671618 0.659743
vt 0.704872 0.663310
vt 0.371406 0.676686
vt 0.380112 0.645545
vt 0.768555 0.548355
vt 0.768086 0.530243
vt 0.688916 0.355240
vt 0.721049 0.354033
vt 0.779456 0.220259
vt 0.802198 0.221647
vt 0.215708 0.368344
vt 0.251157 0.361831
vt 0.726707 0.660242
vt 0.728810 0.683496
vt 0.823673 0.587177
vt 0.478666 0.344059
vt 0.500476 0.356103
vt 0.502100 0.367072
vt 0.465842 0.347911
vt 0.752616 0.234079
vt 0.737633 0.358283
vt 0.749623 0.805648
vt 0.749374 0.805469
vt 0.749391 0.804558
vt 0.749623 0.804709
vt 0.830016 0.538218
vt 0.829297 0.538178
vt 0.829297 0.536587
vt 0.829929 0.536627
vt 0.139064 0.880707
vt 0.138974 0.881133
vt 0.136726 0.881229
vt 0.136788 0.880869
vt 0.987823 0.181412
vt 0.988104 0.182562
vt 0.987493 0.183275
vt 0.986350 0.183133
vt 0.986086 0.181964
vt 0.986632 0.181327
s 1
usemtl Material
f 92/1/82 88/2/78 17/3/17 18/4/18
f 11/5/11 10/6/10 7/7/7 8/8/8
f 8/9/8 7/10/7 5/11/5 6/12/6
f 9/13/9 2/14/2 4/15/4 11/16/11
f 2/17/2 1/18/1 3/19/3 4/20/4
f 9/21/9 12/22/12 1/18/1 2/17/2
f 6/23/6 5/24/5 12/25/12 9/26/9
f 6/27/6 9/13/9 11/16/11 8/28/8
f 4/29/4 3/30/3 10/6/10 11/5/11
f 91/31/81 87/32/77 13/33/13 14/34/14
f 78/35/68 76/36/66 20/37/20 23/38/23
f 77/39/67 75/40/65 22/41/22 19/42/19
f 87/32/77 89/43/79 16/44/16 13/33/13
f 88/45/78 91/46/81 14/47/14 17/48/17
f 89/49/79 90/50/80 15/51/15 16/52/16
f 90/53/80 92/1/82 18/4/18 15/54/15
f 66/55/56 65/56/55 30/57/30 27/58/27
f 65/56/55 63/59/53 29/60/29 30/57/30
f 76/61/66 77/39/67 19/42/19 20/62/20
f 79/63/69 78/64/68 23/65/23 24/66/24
f 80/67/70 79/63/69 24/66/24 21/68/21
f 75/69/65 80/70/70 21/71/21 22/72/22
f 67/73/57 66/74/56 27/75/27 28/76/28
f 68/77/58 67/78/57 28/79/28 25/80/25
f 63/81/53 64/82/54 26/83/26 29/84/29
f 64/85/54 68/77/58 25/80/25 26/86/26
f 74/87/64 72/88/62 41/89/35 42/90/36
f 73/91/63 74/92/64 42/93/36 37/94/31
f 72/88/62 71/95/61 40/96/34 41/89/35
f 71/97/61 70/98/60 39/99/33 40/100/34
f 69/101/59 73/102/63 37/103/31 38/104/32
f 70/105/60 69/101/59 38/104/32 39/106/33
f 85/107/75 84/108/74 48/109/42 43/110/37
f 84/111/74 83/112/73 47/113/41 48/114/42
f 83/112/73 82/115/72 46/116/40 47/113/41
f 86/117/76 81/118/71 44/119/38 45/120/39
f 81/118/71 85/121/75 43/122/37 44/119/38
f 82/123/72 86/124/76 45/125/39 46/126/40
f 98/127/88 94/128/84 52/129/46 54/130/48
f 97/131/87 98/132/88 54/133/48 53/134/47
f 96/135/86 93/136/83 50/137/44 51/138/45
f 95/139/85 97/140/87 53/141/47 49/142/43
f 93/136/83 95/143/85 49/144/43 50/137/44
f 94/128/84 96/145/86 51/146/45 52/129/46
f 25/80/25 28/79/28 62/147/52 59/148/49
f 27/58/27 30/57/30 60/149/50 61/150/51
f 28/76/28 27/75/27 61/151/51 62/152/52
f 42/90/36 41/89/35 68/77/58 64/85/54
f 37/94/31 42/93/36 64/82/54 63/81/53
f 41/89/35 40/96/34 67/78/57 68/77/58
f 40/100/34 39/99/33 66/74/56 67/73/57
f 38/104/32 37/103/31 63/59/53 65/56/55
f 39/106/33 38/104/32 65/56/55 66/55/56
f 21/68/21 24/66/24 69/101/59 70/105/60
f 24/66/24 23/65/23 73/102/63 69/101/59
f 22/72/22 21/71/21 70/98/60 71/97/61
f 19/42/19 22/41/22 71/95/61 72/88/62
f 23/38/23 20/37/20 74/92/64 73/91/63
f 20/62/20 19/42/19 72/88/62 74/87/64
f 43/110/37 48/109/42 80/70/70 75/69/65
f 48/114/42 47/113/41 79/63/69 80/67/70
f 47/113/41 46/116/40 78/64/68 79/63/69
f 45/120/39 44/119/38 77/39/67 76/61/66
f 44/119/38 43/122/37 75/40/65 77/39/67
f 46/126/40 45/125/39 76/36/66 78/35/68
f 17/48/17 14/47/14 86/124/76 82/123/72
f 13/33/13 16/44/16 85/121/75 81/118/71
f 14/34/14 13/33/13 81/118/71 86/117/76
f 18/4/18 17/3/17 82/115/72 83/112/73
f 15/54/15 18/4/18 83/112/73 84/111/74
f 16/52/16 15/51/15 84/108/74 85/107/75
f 54/130/48 52/129/46 92/1/82 90/53/80
f 53/134/47 54/133/48 90/50/80 89/49/79
f 51/138/45 50/137/44 91/46/81 88/45/78
f 49/142/43 53/141/47 89/43/79 87/32/77
f 50/153/44 49/142/43 87/32/77 91/31/81
f 52/129/46 51/146/45 88/2/78 92/1/82
f 12/25/12 5/24/5 96/145/86 94/128/84
f 7/7/7 10/6/10 95/139/85 93/154/83
f 10/6/10 3/30/3 97/140/87 95/139/85
f 5/11/5 7/10/7 93/136/83 96/135/86
f 3/19/3 1/18/1 98/132/88 97/131/87
f 1/155/1 12/25/12 94/128/84 98/127/88
f 101/156/90 100/157/90 99/158/89 102/159/91
f 30/57/30 29/60/29 99/160/89 60/149/50
f 29/84/29 26/83/26 102/159/91 99/158/89
f 26/86/26 25/80/25 59/148/49 102/161/91
f 106/162/92 104/163/92 103/164/92 105/165/92
f 110/166/93 108/167/93 107/168/93 109/169/93
f 113/170/94 114/171/94 112/172/94 111/173/94
f 115/174/95 116/175/95 119/176/95 120/177/95 117/178/95 118/179/95
l 32 34
l 31 33
l 36 35
l 56 55
l 58 57
